HIERARCHY
ROOT Hips
{
    OFFSET 0.000000 0.000000 0.000000
    CHANNELS 6 Xposition Yposition Zposition Zrotation Xrotation Yrotation
    JOINT Spine
    {
        OFFSET -0.000000 7.236184 0.000000
        CHANNELS 3 Zrotation Xrotation Yrotation
        JOINT Spine1
        {
            OFFSET -0.000000 20.420147 0.000000
            CHANNELS 3 Zrotation Xrotation Yrotation
            JOINT Neck
            {
                OFFSET -0.000000 20.336288 1.848754
                CHANNELS 3 Zrotation Xrotation Yrotation
                JOINT Head
                {
                    OFFSET -0.000000 12.354461 -1.764923
                    CHANNELS 3 Zrotation Xrotation Yrotation
                    End Site
                    {
                        OFFSET -0.000000 22.061537 0.000000
                    }
                }
            }
            JOINT LeftShoulder
            {
                OFFSET 3.573296 18.396038 -0.314103
                CHANNELS 3 Zrotation Xrotation Yrotation
                JOINT LeftArm
                {
                    OFFSET 10.880760 0.000000 0.000000
                    CHANNELS 3 Zrotation Xrotation Yrotation
                    JOINT LeftForeArm
                    {
                        OFFSET 27.185530 0.000000 0.000000
                        CHANNELS 3 Zrotation Xrotation Yrotation
                        JOINT LeftHand
                        {
                            OFFSET 27.825975 0.000000 0.000000
                            CHANNELS 3 Zrotation Xrotation Yrotation
                            End Site
                            {
                                OFFSET 13.236923 0.000000 0.000000
                            }
                        }
                    }
                }
            }
            JOINT RightShoulder
            {
                OFFSET -3.474926 18.396038 -0.314103
                CHANNELS 3 Zrotation Xrotation Yrotation
                JOINT RightArm
                {
                    OFFSET -10.880760 0.000000 0.000000
                    CHANNELS 3 Zrotation Xrotation Yrotation
                    JOINT RightForeArm
                    {
                        OFFSET -27.185530 0.000000 0.000000
                        CHANNELS 3 Zrotation Xrotation Yrotation
                        JOINT RightHand
                        {
                            OFFSET -27.825975 0.000000 0.000000
                            CHANNELS 3 Zrotation Xrotation Yrotation
                            End Site
                            {
                                OFFSET -13.236923 0.000000 0.000000
                            }
                        }
                    }
                }
            }
        }
    }
    JOINT LeftUpLeg
    {
        OFFSET 8.824615 0.000000 0.000000
        CHANNELS 3 Zrotation Xrotation Yrotation
        JOINT LeftLeg
        {
            OFFSET -0.000000 -35.111282 0.000000
            CHANNELS 3 Zrotation Xrotation Yrotation
            JOINT LeftFoot
            {
                OFFSET -0.000000 -42.324711 0.000000
                CHANNELS 3 Zrotation Xrotation Yrotation
                JOINT LeftToeBase
                {
                    OFFSET -0.000000 -5.735999 13.236923
                    CHANNELS 3 Zrotation Xrotation Yrotation
                    End Site
                    {
                        OFFSET -0.000000 0.000000 3.529846
                    }
                }
            }
        }
    }
    JOINT RightUpLeg
    {
        OFFSET -8.824615 0.000000 0.000000
        CHANNELS 3 Zrotation Xrotation Yrotation
        JOINT RightLeg
        {
            OFFSET -0.000000 -35.111282 0.000000
            CHANNELS 3 Zrotation Xrotation Yrotation
            JOINT RightFoot
            {
                OFFSET -0.000000 -42.324711 0.000000
                CHANNELS 3 Zrotation Xrotation Yrotation
                JOINT RightToeBase
                {
                    OFFSET -0.000000 -5.735999 13.236923
                    CHANNELS 3 Zrotation Xrotation Yrotation
                    End Site
                    {
                        OFFSET -0.000000 0.000000 3.529846
                    }
                }
            }
        }
    }
}
MOTION
Frames:    10
Frame Time:    0.008333
9.382881    83.990715    102.132080    -3.474759    -9.344912    -174.582230    -1.945324    -16.689438    1.269668    1.841866    0.879590    1.540913    -1.679592    12.474751    0.427693    6.812413    2.470089    1.334693    13.000121    -0.170397    -2.140047    -16.764034    -6.140195    -12.474111    16.619017    -10.813804    -23.504761    -2.920162    -7.319559    -2.201221    -4.917550    8.323314    -8.339000    19.940466    -13.990609    -2.248311    -28.048552    -10.579547    50.841751    -24.804686    1.820148    5.486705    11.386224    -16.049778    -4.745007    -1.440847    15.564749    9.693951    -14.900622    3.846524    -20.295992    -0.943257    -2.392915    1.050173    -13.461656    -2.023261    -5.771769    3.467346    0.847664    -4.791486    7.316933    -4.864205    -7.184770    -2.320931    1.159874    2.506265    
8.994837    83.898087    102.056549    -3.144090    -9.502202    -174.461792    -2.108880    -16.858067    1.013387    2.101813    0.850056    1.310377    -1.312771    12.299422    0.341052    6.891127    2.494241    1.241774    12.917129    -0.371935    -2.298842    -16.657227    -6.951044    -13.308655    16.675591    -12.341555    -25.172106    -2.848195    -8.599012    -2.242652    -4.336808    8.736755    -8.887932    20.715492    -15.061545    -2.998210    -27.047930    -9.903505    49.772026    -25.300446    1.596669    5.737700    11.360506    -15.370285    -4.390310    -1.294104    14.389653    9.100685    -14.512234    2.970847    -19.776499    -0.785818    -2.058823    0.874343    -13.432315    -2.180099    -5.903375    3.461135    0.998617    -4.855689    7.634889    -4.854038    -7.118791    -2.291610    1.061740    2.474930    
8.597955    83.810715    101.991821    -2.830842    -9.642946    -174.314804    -2.285760    -16.991014    0.752887    2.331219    0.825356    1.077627    -0.930951    12.123696    0.239178    6.975890    2.504783    1.132769    12.857131    -0.572716    -2.494072    -16.583693    -7.733749    -14.152153    16.629259    -13.925233    -26.921679    -2.729377    -9.950076    -2.263013    -3.742491    9.177812    -9.446613    21.500793    -16.201363    -3.692248    -26.065613    -9.268438    48.675770    -25.764414    1.347905    6.047751    11.320387    -14.783445    -4.003477    -1.167895    13.355548    8.456648    -14.129095    2.123456    -19.279282    -0.640751    -1.706131    0.712466    -13.429165    -2.368474    -6.054334    3.449226    1.239245    -4.894706    7.957741    -4.841208    -7.084290    -2.249979    0.938642    2.430374    
8.192752    83.729416    101.938438    -2.535882    -9.764932    -174.149506    -2.473370    -17.085445    0.486969    2.534318    0.803796    0.840862    -0.539170    11.949103    0.128848    7.059641    2.503694    1.014155    12.822771    -0.769238    -2.722851    -16.541054    -8.473480    -14.989599    16.489319    -15.545987    -28.751213    -2.577052    -11.357020    -2.256725    -3.144680    9.645702    -10.009461    22.294573    -17.367950    -4.310538    -25.121641    -8.677317    47.545635    -26.202301    1.077419    6.415106    11.264506    -14.287719    -3.606102    -1.063084    12.469341    7.777584    -13.754021    1.303321    -18.803139    -0.506534    -1.340589    0.562847    -13.454490    -2.594612    -6.218650    3.433487    1.578629    -4.908457    8.287350    -4.822814    -7.079600    -2.198597    0.789294    2.375353    
7.779023    83.654953    101.896736    -2.259222    -9.867643    -173.975250    -2.670187    -17.140417    0.214195    2.718200    0.783750    0.598101    -0.142263    11.776397    0.016459    7.135432    2.493984    0.893214    12.813951    -0.957461    -2.980266    -16.524256    -9.158716    -15.810197    16.272978    -17.184496    -30.658625    -2.402215    -12.800567    -2.222084    -2.553036    10.136780    -10.570200    23.096491    -18.515020    -4.837993    -24.233746    -8.130681    46.372963    -26.620945    0.790461    6.832838    11.191975    -13.877590    -3.220560    -0.979011    11.729286    7.086705    -13.388309    0.509252    -18.348028    -0.380745    -0.966585    0.422784    -13.510625    -2.866511    -6.389240    3.416067    2.025532    -4.897402    8.626952    -4.794563    -7.103106    -2.139667    0.609764    2.312249    
7.366407    83.589661    101.867607    -2.006572    -9.949657    -173.806091    -2.870169    -17.155918    -0.060177    2.886468    0.764199    0.353752    0.245829    11.609892    -0.085549    7.196713    2.478606    0.776570    12.828568    -1.130250    -3.254045    -16.526539    -9.766858    -16.586123    16.009991    -18.782207    -32.593349    -2.214782    -14.223931    -2.160795    -1.989664    10.631754    -11.107038    23.885902    -19.567188    -5.256627    -23.435755    -7.641294    45.179688    -27.015341    0.498681    7.277215    11.104525    -13.552407    -2.876046    -0.915266    11.141004    6.427923    -13.040498    -0.240108    -17.926111    -0.263953    -0.597219    0.292899    -13.597858    -3.185272    -6.554230    3.400277    2.574272    -4.864876    8.971416    -4.751209    -7.150156    -2.076584    0.400786    2.244718    
6.926612    83.529984    101.849342    -1.760758    -10.017040    -173.641510    -3.085764    -17.132816    -0.355240    3.057799    0.741978    0.090416    0.647795    11.439195    -0.180286    7.242568    2.459467    0.665767    12.863990    -1.296566    -3.557336    -16.540554    -10.333070    -17.362822    15.704811    -20.427053    -34.682045    -2.003104    -15.699916    -2.070694    -1.423677    11.153877    -11.645089    24.712748    -20.544392    -5.591748    -22.684324    -7.180722    43.878407    -27.413660    0.182624    7.762259    10.996310    -13.280125    -2.566533    -0.865872    10.653147    5.786325    -12.685940    -0.992423    -17.513006    -0.146058    -0.211864    0.161962    -13.725495    -3.582357    -6.715905    3.388851    3.270594    -4.812392    9.347813    -4.681587    -7.219328    -2.006109    0.143321    2.169302    
6.487662    83.481125    101.843918    -1.538712    -10.065228    -173.504120    -3.301731    -17.071352    -0.651134    3.226680    0.717032    -0.175549    1.033426    11.277404    -0.254507    7.267534    2.438975    0.573997    12.915389    -1.441150    -3.865966    -16.559519    -10.819151    -18.084734    15.406603    -21.997974    -36.781788    -1.776085    -17.111891    -1.954250    -0.900092    11.658230    -12.136423    25.517946    -21.334997    -5.818628    -22.035856    -6.783805    42.551769    -27.786549    -0.135767    8.235445    10.873934    -13.070290    -2.324896    -0.832086    10.289194    5.232204    -12.346692    -1.693012    -17.142900    -0.033622    0.159139    0.037258    -13.890630    -4.044990    -6.854015    3.387492    4.083016    -4.748062    9.736637    -4.579243    -7.300640    -1.932676    -0.153150    2.090746    
6.039311    83.442429    101.850822    -1.334246    -10.096642    -173.401031    -3.520553    -16.972000    -0.953618    3.401107    0.687318    -0.448570    1.408745    11.122444    -0.305567    7.273459    2.417951    0.503610    12.978343    -1.570445    -4.184842    -16.576777    -11.239953    -18.764999    15.132729    -23.526001    -38.931202    -1.523262    -18.479649    -1.807359    -0.410224    12.146137    -12.584199    26.314026    -21.930756    -5.950895    -21.468876    -6.443847    41.171932    -28.135332    -0.465709    8.687097    10.736638    -12.903301    -2.145424    -0.810494    10.019936    4.769011    -12.013034    -2.355017    -16.811352    0.076980    0.519528    -0.085250    -14.099702    -4.591132    -6.962396    3.402200    5.033489    -4.677678    10.150769    -4.432079    -7.388842    -1.854846    -0.499051    2.007510    
5.583755    83.414841    101.870094    -1.147924    -10.112063    -173.343369    -3.738055    -16.836864    -1.258541    3.582401    0.652250    -0.725601    1.768928    10.977494    -0.329479    7.262726    2.397337    0.459033    13.047603    -1.682695    -4.510892    -16.589430    -11.604098    -19.401281    14.905638    -25.001707    -41.107979    -1.240684    -19.786884    -1.628548    0.039870    12.605480    -12.977910    27.088768    -22.313330    -5.996098    -20.976814    -6.163694    39.753613    -28.448225    -0.805553    9.096751    10.587254    -12.768499    -2.023080    -0.799320    9.830888    4.408534    -11.687858    -2.970290    -16.523895    0.185483    0.861187    -0.205285    -14.355685    -5.227771    -7.031019    3.440469    6.124699    -4.606443    10.592649    -4.230193    -7.479237    -1.773269    -0.895507    1.920277    
